<?xml version="1.0" encoding="utf-8"?>
<!-- Generator: Adobe Illustrator 22.1.0, SVG Export Plug-In . SVG Version: 6.00 Build 0)  -->
<svg version="1.1" id="Layer_1" xmlns="http://www.w3.org/2000/svg" xmlns:xlink="http://www.w3.org/1999/xlink" x="0px" y="0px"
	 viewBox="0 0 220 48" style="enable-background:new 0 0 220 48;" xml:space="preserve">
<style type="text/css">
	.st0{fill:#F47B20;}
</style>
<g>
	<path class="st0" d="M0,23.7v13.7h3.3c0.9,0,1.7-0.1,2.3-0.3s1.1-0.5,1.6-1c0.8-0.8,1.2-1.7,1.2-2.8c0-0.8-0.2-1.6-0.7-2.2
		c-0.4-0.5-0.9-0.9-1.4-1.2c0.6-0.7,0.9-1.4,0.9-2.3c0-0.6-0.1-1.1-0.4-1.6c-0.2-0.5-0.5-1-0.9-1.3c-0.4-0.4-0.9-0.6-1.5-0.8
		c-0.5-0.1-1.3-0.2-2.2-0.2C2.2,23.7,0,23.7,0,23.7z M3,26c0.6,0,1.1,0.1,1.4,0.4c0.3,0.3,0.5,0.7,0.5,1.2c0,0.6-0.1,1-0.4,1.3
		c-0.3,0.3-0.8,0.4-1.5,0.4H2.6V26H3z M3.3,31.5c1,0,1.7,0.2,2.1,0.5C5.8,32.3,6,32.8,6,33.3s-0.2,0.9-0.6,1.3
		c-0.4,0.3-1,0.5-1.8,0.5h-1v-3.5L3.3,31.5L3.3,31.5z"/>
	<polygon class="st0" points="13.5,23.7 13.5,37.4 21.3,37.4 21.3,35 16,35 16,31.1 21.2,31.1 21.2,28.7 16,28.7 16,26 21.3,26 
		21.3,23.7 	"/>
	<path class="st0" d="M34.7,23.7c0,0-3.1,7.7-3.5,8.8c-0.4-1-3.5-8.8-3.5-8.8H25l6.2,15.1l6.3-15.1C37.5,23.7,34.7,23.7,34.7,23.7z"
		/>
	<path class="st0" d="M44.4,25.9L44.4,25.9c-1.2,1.4-1.7,2.9-1.7,4.7c0,1.9,0.7,3.6,2.1,5s3.1,2.1,5,2.1c1.3,0,2.5-0.3,3.7-1
		l0.1-0.1v-3.1l-0.4,0.3c-0.3,0.3-0.6,0.5-0.9,0.7s-0.6,0.3-0.8,0.4c-0.5,0.2-1,0.3-1.7,0.3c-1.3,0-2.4-0.5-3.3-1.4s-1.3-2-1.3-3.3
		s0.4-2.5,1.3-3.4s2-1.4,3.3-1.4c1.2,0,2.3,0.5,3.4,1.4l0.4,0.3v-3l-0.1-0.1c-1.1-0.7-2.3-1-3.6-1C47.6,23.4,45.8,24.2,44.4,25.9"/>
	<polygon class="st0" points="66.8,23.7 66.8,28.8 61.6,28.8 61.6,23.7 59.1,23.7 59.1,37.4 61.6,37.4 61.6,31.2 66.8,31.2 
		66.8,37.4 69.3,37.4 69.3,23.7 	"/>
	<path class="st0" d="M73.5,37.4h2.7c0,0,1.4-3,1.5-3.2H83c0.1,0.3,1.4,3.2,1.4,3.2h2.7l-6.7-14.9L73.5,37.4z M80.4,28.1
		c0.3,0.7,1.4,3.1,1.6,3.6h-3.3C79,31.3,80.1,28.9,80.4,28.1"/>
	<rect x="91.3" y="23.7" class="st0" width="2.5" height="13.7"/>
	<path class="st0" d="M99.7,37.4h2.5v-8.9c0.8,0.8,9.6,10.1,9.6,10.1V23.7h-2.5v8.8c-0.8-0.8-9.6-10.1-9.6-10.1V37.4z"/>
	<path class="st0" d="M48.7,47h-0.2c-4.4-0.2-7-1.7-7.3-4.4c-0.3-3.2-0.4-19-0.3-20.7c0.2-5.1,5.4-5,5.4-12c0-3.5,0-6.5,0-6.5
		c0-0.6,0.3-1.3,0.7-1.7c1.4-1.3,4.8-1.3,4.8-1.3s-6.5-1.1-6.6,3c0,0,0,3,0,6.5c0,6.4-5.5,6.7-5.4,12c0,3.1,0,17.8,0.3,20.9
		c0.1,1.5,0.9,2.8,2.2,3.8c1.4,1,3.5,1.6,6.2,1.7l0,0l0,0h0.2c5.8,0.1,7.7-1.9,8.3-3.7C56.5,45.9,53.8,47.1,48.7,47"/>
</g>
</svg>
