<?xml version="1.0" encoding="utf-8"?>
<!-- Generator: Adobe Illustrator 22.1.0, SVG Export Plug-In . SVG Version: 6.00 Build 0)  -->
<svg version="1.1" id="Layer_1" xmlns="http://www.w3.org/2000/svg" xmlns:xlink="http://www.w3.org/1999/xlink" x="0px" y="0px"
	 viewBox="0 0 240 72" style="enable-background:new 0 0 240 72;" xml:space="preserve">
<style type="text/css">
	.st0{fill:#4CAECF;}
	.st1{fill:#2F4153;}
</style>
<g>
	<path class="st0" d="M51.5,35.8c0-0.2-0.1-0.4-0.2-0.7l0,0L48,31.9c0,0,0,0-0.1-0.1c-0.1-0.1,0,0-0.1-0.1l0,0c0,0,0,0-0.1,0l0,0
		h-0.1l0,0c0,0,0,0-0.1,0s-0.1,0-0.1,0h-0.1c0,0,0,0-0.1,0l0,0c-0.1,0-0.2,0.1-0.3,0.1c0,0,0,0-0.1,0c0,0,0,0-0.1,0.1L32.3,46.3
		c-5.8,5.8-15.2,5.8-20.9,0s-5.8-15.2,0-20.9c4.7-4.7,11.9-5.7,17.5-2.6c0.2,0.1,0.4,0.4,0.4,0.8c0,0.2-0.1,0.4-0.2,0.5l-0.7,0.8
		C28.3,24.9,28,25,27.8,25c-0.1,0-0.2,0-0.3-0.1l0,0c-4.6-2.3-10.4-1.6-14.2,2.3c-4.8,4.8-4.8,12.5,0,17.3s12.5,4.8,17.3,0
		l14.4-14.4l0,0c0.1-0.1,0.2-0.3,0.2-0.7s-0.1-0.4-0.2-0.5l0,0l-0.1-0.1l0,0l-1.6-1.6l-1.5-1.5l0,0l-0.1-0.1l0,0
		c-0.1-0.1-0.3-0.2-0.5-0.2c-0.2,0-0.4,0.1-0.5,0.2l-0.1,0.1L26,40c-2.3,2.3-5.9,2.3-8.2,0s-2.3-6,0-8.2c2.3-2.3,6-2.3,8.2,0
		c0.4,0.4,0.9,1.1,1.2,1.6l0,0l0,0l0,0l0,0v0.1l0,0c0,0,0,0,0,0.1l0,0c0,0,0,0,0.1,0.1l0,0c0,0,0,0,0.1,0.1l0,0c0,0,0,0,0.1,0l0,0
		h0.1l0,0c0,0,0,0,0.1,0l0,0h0.1l0,0c0,0,0,0,0.1,0l0,0l0,0l0,0l0,0l0,0l0,0l0,0l0,0l0,0l0,0l0.1-0.1l0,0l9.9-9.9l0,0
		c0,0,0,0,0.1-0.1l0,0c0.1-0.1,0.2-0.3,0.2-0.5s-0.1-0.4-0.2-0.5L38,22.5l-1.6-1.6c-8.3-8.3-21.8-8.3-30.1,0s-8.3,21.9,0,30.2
		s21.9,8.3,30.2,0l14.4-14.4l0,0C51.4,36.3,51.5,36.1,51.5,35.8 M24.1,38.1c1.3-1.3,1.3-3.4,0-4.6c-1.3-1.3-3.4-1.3-4.6,0
		c-1.3,1.3-1.3,3.4,0,4.6C20.7,39.4,22.8,39.4,24.1,38.1"/>
	<polygon class="st1" points="76.9,25.5 76.9,27.3 70.4,27.3 70.4,32.5 76.9,32.5 76.9,34.3 70.4,34.3 70.4,40.1 77,40.1 77,41.9 
		68.3,41.9 68.3,25.5 	"/>
	<path class="st1" d="M92.6,41.9v-7.3c0-1.3-0.1-2-0.2-2.4c-0.2-0.4-0.4-0.8-0.9-1.1c-0.3-0.2-0.8-0.3-1.3-0.3
		c-0.3,0-0.8,0.1-1.2,0.3c-0.3,0.2-0.7,0.5-0.9,0.8c-0.1,0.2-0.2,0.5-0.2,0.8c0,0.2-0.1,0.8-0.1,1.5v7.6h-2v-7.3
		c0-1.3-0.1-2-0.2-2.4c-0.2-0.4-0.4-0.8-0.9-1.1c-0.3-0.2-0.8-0.3-1.3-0.3s-0.9,0.1-1.3,0.4c-0.3,0.2-0.7,0.7-0.9,1.2
		c-0.1,0.2-0.2,1.1-0.2,2.2v7.3h-2V30.1h2.1c0.8-0.5,1.6-0.8,2.5-0.8c1.3,0,2.4,0.4,3.4,1.5c0.9-1.1,2.1-1.5,3.4-1.5
		c1.2,0,2.2,0.3,2.9,1.2c0.4,0.4,0.8,0.9,0.9,1.4c0.1,0.5,0.2,1.2,0.2,2.1v8.1h-1.9V41.9z"/>
	<path class="st1" d="M98.9,33.3v4.9c0.2,0.8,0.7,1.4,1.2,1.7c0.5,0.3,1.2,0.5,2,0.5c0.9,0,1.7-0.3,2.3-1.1c0.8-0.9,1.2-2.2,1.2-3.9
		c0-1.6-0.3-2.7-1.1-3.7c-0.5-0.8-1.5-1.2-2.4-1.2c-0.7,0-1.4,0.2-2,0.7C99.6,31.9,99.2,32.5,98.9,33.3 M99.1,30.1
		c0.8-0.5,1.7-0.8,2.9-0.8c1.7,0,2.9,0.5,4,1.9c0.9,1.2,1.5,2.6,1.5,4.7c0,2.2-0.5,3.9-1.7,5c-0.9,0.9-2.2,1.5-3.7,1.5
		c-1.3,0-2.3-0.3-3.3-0.9V47h-2V30.1H99.1z"/>
	<path class="st1" d="M112.5,40.4v1.6c-0.1,0-0.2,0-0.4,0c-1.3,0-2.2-0.3-2.5-1.1c-0.1-0.2-0.2-0.4-0.2-0.8c0-0.3,0-0.9,0-1.6V24.9
		h2v13.7c0,0.5,0,0.9,0,1.2s0.1,0.3,0.2,0.4C111.6,40.4,111.9,40.4,112.5,40.4"/>
	<path class="st1" d="M118.8,30.9c-0.4,0-0.9,0.1-1.3,0.3c-0.4,0.2-0.8,0.4-1.1,0.8c-0.7,0.9-1.1,2.1-1.1,3.7s0.3,2.7,1.1,3.7
		c0.5,0.8,1.5,1.2,2.5,1.2c0.9,0,1.7-0.3,2.2-1.1c0.8-0.9,1.2-2.2,1.2-3.9c0-1.6-0.3-2.7-1.1-3.7C120.8,31.4,119.9,30.9,118.8,30.9
		 M118.9,29.3c1.6,0,2.8,0.5,3.9,1.9c0.9,1.2,1.5,2.6,1.5,4.7c0,2.2-0.5,3.9-1.7,5c-0.9,0.9-2.2,1.5-3.7,1.5c-1.9,0-3.2-0.7-4.1-1.9
		c-0.9-1.2-1.4-2.7-1.4-4.6s0.3-3.4,1.3-4.5C115.6,29.9,117.2,29.3,118.9,29.3"/>
	<path class="st1" d="M135.6,29.6l-6.3,17h-1.7l1.7-4.8l-4.7-12.2h2.1l2.6,7.3c0.2,0.5,0.4,1.5,0.9,2.8c0.3-1.3,0.7-2.3,0.9-2.9
		l2.4-7h2.1v-0.2H135.6z"/>
	<path class="st1" d="M144.4,34.5c-0.1-0.8-0.2-1.4-0.5-2c-0.5-1.2-1.6-1.7-2.7-1.7c-0.8,0-1.5,0.2-2,0.7c-0.8,0.5-1.2,1.6-1.4,2.8
		L144.4,34.5L144.4,34.5z M146.5,36.1h-9.1c0,1.2,0.2,2.1,0.7,2.7c0.5,1.2,1.6,1.7,2.8,1.7s2.2-0.5,2.7-1.9l1.7,0.8
		c-0.9,1.7-2.5,2.6-4.6,2.6c-1.9,0-3.2-0.7-4.1-1.9c-0.9-1.2-1.4-2.7-1.4-4.6c0-1.7,0.3-3.3,1.3-4.4c1.1-1.4,2.4-2.1,4.3-2.1
		c1.7,0,2.9,0.5,4,1.9c0.5,0.5,0.9,1.3,1.1,2.1C146.4,33.9,146.5,34.9,146.5,36.1"/>
	<path class="st1" d="M156.8,34.5c-0.1-0.8-0.2-1.4-0.5-2c-0.5-1.2-1.6-1.7-2.7-1.7c-0.8,0-1.5,0.2-2,0.7c-0.8,0.5-1.2,1.6-1.4,2.8
		L156.8,34.5L156.8,34.5z M158.8,36.1h-8.9c0,1.2,0.2,2.1,0.7,2.7c0.5,1.2,1.6,1.7,2.8,1.7c1.3,0,2.2-0.5,2.7-1.9l1.7,0.8
		c-0.9,1.7-2.5,2.6-4.6,2.6c-1.9,0-3.2-0.7-4.1-1.9c-0.9-1.2-1.4-2.7-1.4-4.6c0-1.7,0.3-3.3,1.3-4.4c1.1-1.4,2.4-2.1,4.3-2.1
		c1.7,0,2.9,0.5,4,1.9c0.5,0.5,0.9,1.3,1.1,2.1C158.7,33.9,158.8,34.9,158.8,36.1"/>
	<path class="st1" d="M171.1,29.6c-0.8-1.7-2.1-2.6-3.6-2.6c-1.3,0-2.4,0.5-3.2,1.7c-0.8,1.3-1.3,2.8-1.3,4.8s0.3,3.6,1.1,4.7
		c0.3,0.7,0.9,1.3,1.7,1.6c0.5,0.2,1.2,0.4,1.7,0.4c0.8,0,1.5-0.2,2.1-0.7c0.7-0.4,1.2-1.2,1.5-2l2,0.9c-0.1,0.2-0.2,0.5-0.3,0.7
		c-1.3,2-2.9,2.8-5.2,2.8c-1.6,0-2.8-0.4-4-1.5c-1.7-1.6-2.6-3.9-2.6-7.1c0-2.5,0.5-4.6,1.9-6.2c1.2-1.6,2.7-2.4,4.8-2.4
		c2,0,3.6,0.8,4.7,2.4c0.2,0.3,0.5,0.7,0.7,1.2L171.1,29.6z"/>
	<path class="st1" d="M179.8,30.9c-0.4,0-0.9,0.1-1.3,0.3c-0.4,0.2-0.8,0.4-1.1,0.8c-0.7,0.9-1.1,2.1-1.1,3.7s0.3,2.7,1.1,3.7
		c0.5,0.8,1.5,1.2,2.5,1.2c0.9,0,1.7-0.3,2.2-1.1c0.8-0.9,1.2-2.2,1.2-3.9c0-1.6-0.3-2.7-1.1-3.7C181.6,31.4,180.8,30.9,179.8,30.9
		 M179.9,29.3c1.6,0,2.8,0.5,3.9,1.9c0.9,1.2,1.5,2.6,1.5,4.7c0,2.2-0.5,3.9-1.7,5c-0.9,0.9-2.2,1.5-3.7,1.5c-1.9,0-3.2-0.7-4.1-1.9
		c-0.9-1.2-1.4-2.7-1.4-4.6s0.3-3.4,1.3-4.5C176.5,29.9,178,29.3,179.9,29.3"/>
	<path class="st1" d="M187,41.9V30.1h1.9c0.9-0.5,1.9-0.8,2.8-0.8c1.3,0,2.4,0.3,3.4,1.2c0.5,0.4,0.9,0.9,1.1,1.4
		c0.1,0.4,0.2,1.2,0.2,2.1v8.1h-2v-7.3c0-1.3-0.1-2.1-0.2-2.4c-0.2-0.3-0.5-0.8-1.1-1.1c-0.4-0.2-0.9-0.3-1.5-0.3s-1.1,0.1-1.5,0.4
		c-0.4,0.2-0.8,0.7-1.1,1.1c-0.1,0.3-0.2,1.1-0.2,2.2v7.3h-1.9v0H187z"/>
	<path class="st1" d="M199,41.9V30.1h1.9c0.9-0.5,1.9-0.8,2.8-0.8c1.3,0,2.4,0.3,3.4,1.2c0.5,0.4,0.9,0.9,1.1,1.4
		c0.1,0.4,0.2,1.2,0.2,2.1v8.1h-2v-7.3c0-1.3-0.1-2.1-0.2-2.4c-0.2-0.3-0.5-0.8-1.1-1.1c-0.4-0.2-0.9-0.3-1.5-0.3s-1.1,0.1-1.5,0.4
		c-0.4,0.2-0.8,0.7-1.1,1.1c-0.1,0.3-0.2,1.1-0.2,2.2v7.3h-1.9v0H199z"/>
	<path class="st1" d="M219.1,34.5c-0.1-0.8-0.2-1.4-0.5-2c-0.5-1.2-1.6-1.7-2.7-1.7c-0.8,0-1.5,0.2-2,0.7c-0.8,0.5-1.2,1.6-1.4,2.8
		L219.1,34.5L219.1,34.5z M221,36.1h-8.9c0,1.2,0.2,2.1,0.7,2.7c0.5,1.2,1.6,1.7,2.8,1.7s2.2-0.5,2.7-1.9l1.7,0.8
		c-0.9,1.7-2.5,2.6-4.6,2.6c-1.9,0-3.2-0.7-4.1-1.9c-0.9-1.2-1.4-2.7-1.4-4.6c0-1.7,0.3-3.3,1.3-4.4c1.1-1.4,2.4-2.1,4.3-2.1
		c1.7,0,2.9,0.5,4,1.9c0.5,0.5,0.9,1.3,1.1,2.1C221,33.9,221,34.9,221,36.1"/>
	<path class="st1" d="M230.6,32.7c-0.5-1.2-1.6-1.7-2.7-1.7s-1.9,0.3-2.4,1.2c-0.7,0.9-1.1,2.2-1.1,3.7c0,1.6,0.3,2.7,1.1,3.7
		c0.5,0.8,1.5,1.2,2.5,1.2c1.3,0,2.2-0.5,2.7-1.9l1.7,0.8c-0.9,1.7-2.5,2.6-4.6,2.6c-1.9,0-3.2-0.7-4.1-1.9
		c-0.9-1.2-1.4-2.7-1.4-4.6c0-1.7,0.3-3.3,1.3-4.4c1.1-1.4,2.4-2.1,4.3-2.1c1.6,0,2.9,0.5,4,1.9c0.2,0.2,0.3,0.4,0.5,0.8L230.6,32.7
		z"/>
	<polygon class="st1" points="235.9,26.1 235.9,29.6 233.7,29.6 233.7,31.3 235.9,31.3 235.9,41.9 237.8,41.9 237.8,31.3 240,31.3 
		240,29.6 237.8,29.6 237.8,26.1 	"/>
</g>
</svg>
