<?xml version="1.0" encoding="utf-8"?>
<!-- Generator: Adobe Illustrator 22.1.0, SVG Export Plug-In . SVG Version: 6.00 Build 0)  -->
<svg version="1.1" id="Layer_1" xmlns="http://www.w3.org/2000/svg" xmlns:xlink="http://www.w3.org/1999/xlink" x="0px" y="0px"
	 viewBox="0 0 220 48" style="enable-background:new 0 0 220 48;" xml:space="preserve">
<style type="text/css">
	.st0{fill:#4CAECF;}
	.st1{fill:#2F4153;}
</style>
<g>
	<path class="st0" d="M47.2,23.9c0-0.2-0.1-0.4-0.2-0.6l0,0l-3-3c0,0,0,0-0.1-0.1c-0.1-0.1,0,0-0.1-0.1l0,0c0,0,0,0-0.1,0l0,0h-0.1
		l0,0c0,0,0,0-0.1,0s-0.1,0-0.1,0h-0.1c0,0,0,0-0.1,0l0,0c-0.1,0-0.2,0.1-0.3,0.1c0,0,0,0-0.1,0c0,0,0,0-0.1,0.1L29.6,33.5
		c-5.3,5.3-13.9,5.3-19.2,0s-5.3-13.9,0-19.2c4.3-4.3,10.9-5.2,16-2.4c0.2,0.1,0.4,0.4,0.4,0.7c0,0.2-0.1,0.4-0.2,0.5L26,13.8
		c-0.1,0.1-0.3,0.2-0.5,0.2c-0.1,0-0.2,0-0.3-0.1l0,0c-4.2-2.1-9.5-1.5-13,2.1c-4.4,4.4-4.4,11.5,0,15.9s11.5,4.4,15.9,0l13.2-13.2
		l0,0c0.1-0.1,0.2-0.3,0.2-0.6s-0.1-0.4-0.2-0.5l0,0l-0.1-0.1l0,0L39.7,16l-1.4-1.4l0,0l-0.1-0.1l0,0c-0.1-0.1-0.3-0.2-0.5-0.2
		c-0.2,0-0.4,0.1-0.5,0.2l-0.1,0.1L23.8,27.7c-2.1,2.1-5.4,2.1-7.5,0s-2.1-5.5,0-7.5c2.1-2.1,5.5-2.1,7.5,0c0.4,0.4,0.8,1,1.1,1.5
		l0,0l0,0l0,0l0,0v0.1l0,0c0,0,0,0,0,0.1l0,0c0,0,0,0,0.1,0.1l0,0c0,0,0,0,0.1,0.1l0,0c0,0,0,0,0.1,0l0,0h0.1l0,0c0,0,0,0,0.1,0l0,0
		h0.1l0,0c0,0,0,0,0.1,0l0,0l0,0l0,0l0,0l0,0l0,0l0,0l0,0l0,0l0,0l0.1-0.1l0,0l9.1-9.1l0,0c0,0,0,0,0.1-0.1l0,0
		c0.1-0.1,0.2-0.3,0.2-0.5c0-0.2-0.1-0.4-0.2-0.5l-0.1-0.1l-1.5-1.5c-7.6-7.6-20-7.6-27.6,0s-7.6,20.1,0,27.7s20.1,7.6,27.7,0
		l13.2-13.2l0,0C47.1,24.3,47.2,24.1,47.2,23.9 M22.1,26c1.2-1.2,1.2-3.1,0-4.2c-1.2-1.2-3.1-1.2-4.2,0c-1.2,1.2-1.2,3.1,0,4.2
		C19,27.2,20.9,27.2,22.1,26"/>
	<polygon class="st1" points="70.5,14.4 70.5,16.1 64.5,16.1 64.5,20.8 70.5,20.8 70.5,22.5 64.5,22.5 64.5,27.8 70.6,27.8 
		70.6,29.5 62.6,29.5 62.6,14.4 	"/>
	<path class="st1" d="M84.9,29.5v-6.7c0-1.2-0.1-1.8-0.2-2.2c-0.2-0.4-0.4-0.7-0.8-1c-0.3-0.2-0.7-0.3-1.2-0.3
		c-0.3,0-0.7,0.1-1.1,0.3c-0.3,0.2-0.6,0.5-0.8,0.7c-0.1,0.2-0.2,0.5-0.2,0.7c0,0.2-0.1,0.7-0.1,1.4v7h-1.8v-6.7
		c0-1.2-0.1-1.8-0.2-2.2c-0.2-0.4-0.4-0.7-0.8-1c-0.3-0.2-0.7-0.3-1.2-0.3s-0.8,0.1-1.2,0.4c-0.3,0.2-0.6,0.6-0.8,1.1
		c-0.1,0.2-0.2,1-0.2,2v6.7h-1.8V18.6h1.9c0.7-0.5,1.5-0.7,2.3-0.7c1.2,0,2.2,0.4,3.1,1.4c0.8-1,1.9-1.4,3.1-1.4
		c1.1,0,2,0.3,2.7,1.1c0.4,0.4,0.7,0.8,0.8,1.3s0.2,1.1,0.2,1.9v7.4H84.9L84.9,29.5z"/>
	<path class="st1" d="M90.7,21.6v4.5c0.2,0.7,0.6,1.3,1.1,1.6c0.5,0.3,1.1,0.5,1.8,0.5c0.8,0,1.6-0.3,2.1-1c0.7-0.8,1.1-2,1.1-3.6
		c0-1.5-0.3-2.5-1-3.4c-0.5-0.7-1.4-1.1-2.2-1.1c-0.6,0-1.3,0.2-1.8,0.6C91.3,20.3,90.9,20.8,90.7,21.6 M90.8,18.6
		c0.7-0.5,1.6-0.7,2.7-0.7c1.6,0,2.7,0.5,3.7,1.7c0.8,1.1,1.4,2.4,1.4,4.3c0,2-0.5,3.6-1.6,4.6c-0.8,0.8-2,1.4-3.4,1.4
		c-1.2,0-2.1-0.3-3-0.8v5h-1.8V18.6H90.8z"/>
	<path class="st1" d="M103.1,28.1v1.5c-0.1,0-0.2,0-0.4,0c-1.2,0-2-0.3-2.3-1c-0.1-0.2-0.2-0.4-0.2-0.7s0-0.8,0-1.5V13.9h1.8v12.6
		c0,0.5,0,0.8,0,1.1s0.1,0.3,0.2,0.4C102.3,28.1,102.6,28.1,103.1,28.1"/>
	<path class="st1" d="M108.9,19.4c-0.4,0-0.8,0.1-1.2,0.3c-0.4,0.2-0.7,0.4-1,0.7c-0.6,0.8-1,1.9-1,3.4c0,1.5,0.3,2.5,1,3.4
		c0.5,0.7,1.4,1.1,2.3,1.1c0.8,0,1.6-0.3,2-1c0.7-0.8,1.1-2,1.1-3.6c0-1.5-0.3-2.5-1-3.4C110.7,19.8,109.9,19.4,108.9,19.4
		 M109,17.9c1.5,0,2.6,0.5,3.6,1.7c0.8,1.1,1.4,2.4,1.4,4.3c0,2-0.5,3.6-1.6,4.6c-0.8,0.8-2,1.4-3.4,1.4c-1.7,0-2.9-0.6-3.8-1.7
		c-0.8-1.1-1.3-2.5-1.3-4.2s0.3-3.1,1.2-4.1C106,18.5,107.4,17.9,109,17.9"/>
	<path class="st1" d="M124.3,18.2l-5.8,15.6h-1.6l1.6-4.4l-4.3-11.2h1.9l2.4,6.7c0.2,0.5,0.4,1.4,0.8,2.6c0.3-1.2,0.6-2.1,0.8-2.7
		l2.2-6.4h1.9V18.2z"/>
	<path class="st1" d="M132.4,22.7c-0.1-0.7-0.2-1.3-0.5-1.8c-0.5-1.1-1.5-1.6-2.5-1.6c-0.7,0-1.4,0.2-1.8,0.6
		c-0.7,0.5-1.1,1.5-1.3,2.6L132.4,22.7L132.4,22.7z M134.3,24.1H126c0,1.1,0.2,1.9,0.6,2.5c0.5,1.1,1.5,1.6,2.6,1.6s2-0.5,2.5-1.7
		l1.6,0.7c-0.8,1.6-2.3,2.4-4.2,2.4c-1.7,0-2.9-0.6-3.8-1.7c-0.8-1.1-1.3-2.5-1.3-4.2c0-1.6,0.3-3,1.2-4c1-1.3,2.2-1.9,3.9-1.9
		c1.6,0,2.7,0.5,3.7,1.7c0.5,0.5,0.8,1.2,1,1.9C134.2,22.1,134.3,23,134.3,24.1"/>
	<path class="st1" d="M143.7,22.7c-0.1-0.7-0.2-1.3-0.5-1.8c-0.5-1.1-1.5-1.6-2.5-1.6c-0.7,0-1.4,0.2-1.8,0.6
		c-0.7,0.5-1.1,1.5-1.3,2.6L143.7,22.7L143.7,22.7z M145.6,24.1h-8.2c0,1.1,0.2,1.9,0.6,2.5c0.5,1.1,1.5,1.6,2.6,1.6
		c1.2,0,2-0.5,2.5-1.7l1.6,0.7c-0.8,1.6-2.3,2.4-4.2,2.4c-1.7,0-2.9-0.6-3.8-1.7c-0.8-1.1-1.3-2.5-1.3-4.2c0-1.6,0.3-3,1.2-4
		c1-1.3,2.2-1.9,3.9-1.9c1.6,0,2.7,0.5,3.7,1.7c0.5,0.5,0.8,1.2,1,1.9C145.5,22.1,145.6,23,145.6,24.1"/>
	<path class="st1" d="M156.8,18.2c-0.7-1.6-1.9-2.4-3.3-2.4c-1.2,0-2.2,0.5-2.9,1.6c-0.7,1.2-1.2,2.6-1.2,4.4c0,1.8,0.3,3.3,1,4.3
		c0.3,0.6,0.8,1.2,1.6,1.5c0.5,0.2,1.1,0.4,1.6,0.4c0.7,0,1.4-0.2,1.9-0.6c0.6-0.4,1.1-1.1,1.4-1.8l1.8,0.8
		c-0.1,0.2-0.2,0.5-0.3,0.6c-1.2,1.8-2.7,2.6-4.8,2.6c-1.5,0-2.6-0.4-3.7-1.4c-1.6-1.5-2.4-3.6-2.4-6.5c0-2.3,0.5-4.2,1.7-5.7
		c1.1-1.5,2.5-2.2,4.4-2.2c1.8,0,3.3,0.7,4.3,2.2c0.2,0.3,0.5,0.6,0.6,1.1L156.8,18.2z"/>
	<path class="st1" d="M164.8,19.4c-0.4,0-0.8,0.1-1.2,0.3c-0.4,0.2-0.7,0.4-1,0.7c-0.6,0.8-1,1.9-1,3.4c0,1.5,0.3,2.5,1,3.4
		c0.5,0.7,1.4,1.1,2.3,1.1c0.8,0,1.6-0.3,2-1c0.7-0.8,1.1-2,1.1-3.6c0-1.5-0.3-2.5-1-3.4C166.5,19.8,165.7,19.4,164.8,19.4
		 M164.9,17.9c1.5,0,2.6,0.5,3.6,1.7c0.8,1.1,1.4,2.4,1.4,4.3c0,2-0.5,3.6-1.6,4.6c-0.8,0.8-2,1.4-3.4,1.4c-1.7,0-2.9-0.6-3.8-1.7
		c-0.8-1.1-1.3-2.5-1.3-4.2s0.3-3.1,1.2-4.1C161.8,18.5,163.2,17.9,164.9,17.9"/>
	<path class="st1" d="M171.4,29.5V18.6h1.7c0.8-0.5,1.7-0.7,2.6-0.7c1.2,0,2.2,0.3,3.1,1.1c0.5,0.4,0.8,0.8,1,1.3
		c0.1,0.4,0.2,1.1,0.2,1.9v7.4h-1.8v-6.7c0-1.2-0.1-1.9-0.2-2.2c-0.2-0.3-0.5-0.7-1-1c-0.4-0.2-0.8-0.3-1.4-0.3s-1,0.1-1.4,0.4
		c-0.4,0.2-0.7,0.6-1,1c-0.1,0.3-0.2,1-0.2,2v6.7h-1.7V29.5z"/>
	<path class="st1" d="M182.4,29.5V18.6h1.7c0.8-0.5,1.7-0.7,2.6-0.7c1.2,0,2.2,0.3,3.1,1.1c0.5,0.4,0.8,0.8,1,1.3
		c0.1,0.4,0.2,1.1,0.2,1.9v7.4h-1.8v-6.7c0-1.2-0.1-1.9-0.2-2.2c-0.2-0.3-0.5-0.7-1-1c-0.4-0.2-0.8-0.3-1.4-0.3s-1,0.1-1.4,0.4
		c-0.4,0.2-0.7,0.6-1,1c-0.1,0.3-0.2,1-0.2,2v6.7h-1.7V29.5z"/>
	<path class="st1" d="M200.8,22.7c-0.1-0.7-0.2-1.3-0.5-1.8c-0.5-1.1-1.5-1.6-2.5-1.6c-0.7,0-1.4,0.2-1.8,0.6
		c-0.7,0.5-1.1,1.5-1.3,2.6L200.8,22.7L200.8,22.7z M202.6,24.1h-8.2c0,1.1,0.2,1.9,0.6,2.5c0.5,1.1,1.5,1.6,2.6,1.6s2-0.5,2.5-1.7
		l1.6,0.7c-0.8,1.6-2.3,2.4-4.2,2.4c-1.7,0-2.9-0.6-3.8-1.7c-0.8-1.1-1.3-2.5-1.3-4.2c0-1.6,0.3-3,1.2-4c1-1.3,2.2-1.9,3.9-1.9
		c1.6,0,2.7,0.5,3.7,1.7c0.5,0.5,0.8,1.2,1,1.9C202.6,22.1,202.6,23,202.6,24.1"/>
	<path class="st1" d="M211.4,21c-0.5-1.1-1.5-1.6-2.5-1.6c-1,0-1.7,0.3-2.2,1.1c-0.6,0.8-1,2-1,3.4c0,1.5,0.3,2.5,1,3.4
		c0.5,0.7,1.4,1.1,2.3,1.1c1.2,0,2-0.5,2.5-1.7l1.6,0.7c-0.8,1.6-2.3,2.4-4.2,2.4c-1.7,0-2.9-0.6-3.8-1.7c-0.8-1.1-1.3-2.5-1.3-4.2
		c0-1.6,0.3-3,1.2-4c1-1.3,2.2-1.9,3.9-1.9c1.5,0,2.7,0.5,3.7,1.7c0.2,0.2,0.3,0.4,0.5,0.7L211.4,21z"/>
	<polygon class="st1" points="216.2,15 216.2,18.2 214.2,18.2 214.2,19.7 216.2,19.7 216.2,29.5 218,29.5 218,19.7 220,19.7 
		220,18.2 218,18.2 218,15 	"/>
</g>
</svg>
