<?xml version="1.0" encoding="utf-8"?>
<!-- Generator: Adobe Illustrator 22.1.0, SVG Export Plug-In . SVG Version: 6.00 Build 0)  -->
<svg version="1.1" id="Layer_1" xmlns="http://www.w3.org/2000/svg" xmlns:xlink="http://www.w3.org/1999/xlink" x="0px" y="0px"
	 viewBox="0 0 240 72" style="enable-background:new 0 0 240 72;" xml:space="preserve">
<style type="text/css">
	.st0{fill:#BBB0A3;}
	.st1{fill:#F47B20;}
</style>
<g>
	<path class="st0" d="M0.2,35.4V56h4.9c1.4,0,2.6-0.1,3.5-0.4c0.9-0.3,1.7-0.8,2.4-1.5c1.2-1.1,1.8-2.5,1.8-4.2c0-1.3-0.3-2.4-1-3.3
		c-0.5-0.8-1.3-1.4-2.2-1.8c0.9-1,1.4-2.1,1.4-3.5c0-0.8-0.2-1.7-0.5-2.5c-0.3-0.8-0.8-1.5-1.4-2c-0.6-0.5-1.3-0.9-2.2-1.1
		c-0.8-0.2-1.9-0.3-3.3-0.3H0.2z M4.6,38.9c0.9,0,1.6,0.2,2.1,0.6c0.5,0.4,0.7,1,0.7,1.9c0,0.9-0.2,1.5-0.7,1.9
		c-0.4,0.4-1.2,0.6-2.2,0.6H3.9v-5H4.6z M5,47.2c1.5,0,2.5,0.3,3.1,0.8C8.7,48.5,9,49.1,9,49.8c0,0.8-0.3,1.4-0.9,1.9
		c-0.6,0.5-1.5,0.7-2.7,0.7H3.9v-5.3H5z"/>
	<polygon class="st0" points="20.5,35.4 20.5,56 32.2,56 32.2,52.4 24.2,52.4 24.2,46.6 31.9,46.6 31.9,43 24.2,43 24.2,39 32.2,39 
		32.2,35.4 	"/>
	<path class="st0" d="M52.3,35.4c0,0-4.7,11.6-5.3,13.1c-0.6-1.5-5.2-13.1-5.2-13.1h-4.1l9.3,22.7l9.5-22.7H52.3z"/>
	<path class="st0" d="M66.7,38.8L66.7,38.8c-1.7,2-2.6,4.4-2.6,7c0,2.9,1,5.4,3.1,7.5c2.1,2,4.6,3.1,7.5,3.1c1.9,0,3.8-0.5,5.6-1.5
		l0.2-0.1v-4.6l-0.6,0.5c-0.5,0.4-0.9,0.7-1.4,1c-0.4,0.3-0.8,0.5-1.2,0.7c-0.7,0.3-1.5,0.5-2.5,0.5c-1.9,0-3.6-0.7-4.9-2
		c-1.3-1.4-2-3-2-5c0-2,0.7-3.7,2-5.1c1.3-1.4,2.9-2.1,4.9-2.1c1.8,0,3.5,0.7,5.1,2.1l0.6,0.5v-4.6l-0.2-0.1c-1.7-1-3.5-1.5-5.4-1.5
		C71.6,35,68.8,36.3,66.7,38.8"/>
	<polygon class="st0" points="100.4,35.4 100.4,43.2 92.6,43.2 92.6,35.4 88.8,35.4 88.8,56 92.6,56 92.6,46.7 100.4,46.7 100.4,56 
		104.1,56 104.1,35.4 	"/>
	<path class="st0" d="M110.4,56h4.1c0,0,2-4.4,2.2-4.8h8c0.2,0.4,2.1,4.8,2.1,4.8h4.1l-10-22.4L110.4,56z M120.7,42.2
		c0.5,1.1,2,4.7,2.4,5.5h-4.9C118.6,46.8,120.2,43.2,120.7,42.2"/>
	<rect x="137.1" y="35.4" class="st0" width="3.7" height="20.6"/>
	<path class="st0" d="M149.6,56h3.7V42.7c1.2,1.2,14.5,15.1,14.5,15.1V35.4h-3.7v13.2c-1.2-1.2-14.5-15.1-14.5-15.1V56z"/>
	<path class="st1" d="M73.2,70.5c0,0-0.2,0-0.3,0c-6.7-0.3-10.5-2.6-10.9-6.7c-0.4-4.8-0.6-28.5-0.5-31.1c0.3-7.7,8.2-7.6,8.2-18
		c0-5.2,0-9.8,0-9.8c0-0.9,0.4-2,1-2.6c2.1-2,7.2-2,7.2-2S68.1-1.3,68,4.9c0,0,0,4.5,0,9.7c0,9.6-8.2,10-8.2,18
		c0,4.6,0,26.6,0.5,31.3c0.2,2.3,1.4,4.3,3.3,5.6c2.2,1.5,5.3,2.4,9.2,2.5h0h0l0.3,0c8.7,0.2,11.6-2.9,12.5-5.5
		C84.9,68.7,80.9,70.6,73.2,70.5"/>
</g>
</svg>
