<?xml version="1.0" encoding="utf-8"?>
<!-- Generator: Adobe Illustrator 22.0.1, SVG Export Plug-In . SVG Version: 6.00 Build 0)  -->
<svg version="1.1" id="Layer_1" xmlns="http://www.w3.org/2000/svg" xmlns:xlink="http://www.w3.org/1999/xlink" x="0px" y="0px"
	 viewBox="0 0 220.6 100" style="enable-background:new 0 0 220.6 100;" xml:space="preserve">
<style type="text/css">
	.st0{fill:url(#SVGID_1_);}
	.st1{fill:url(#SVGID_2_);}
	.st2{fill:url(#SVGID_3_);}
	.st3{fill:url(#SVGID_4_);}
	.st4{fill:#20265B;}
	.st5{fill:#0B95B8;}
</style>
<g>
	<g>
		
			<linearGradient id="SVGID_1_" gradientUnits="userSpaceOnUse" x1="92.2054" y1="63.5239" x2="57.0568" y2="37.0187" gradientTransform="matrix(1 0 0 -1 0 102)">
			<stop  offset="0" style="stop-color:#0B95B8"/>
			<stop  offset="1" style="stop-color:#20265B"/>
		</linearGradient>
		<path class="st0" d="M100,50.3c0,0-11-6.5-24.8-6.5s-22.8,7.1-22.8,7.1s5.4,8.9,5.5,16.4C66.1,59.8,78.2,50.3,100,50.3z"/>
		
			<linearGradient id="SVGID_2_" gradientUnits="userSpaceOnUse" x1="762.5919" y1="8.8101" x2="727.4432" y2="-17.6951" gradientTransform="matrix(0 -1 -1 0 47.3335 770.333)">
			<stop  offset="0" style="stop-color:#0B95B8"/>
			<stop  offset="1" style="stop-color:#20265B"/>
		</linearGradient>
		<path class="st1" d="M50.3-0.1c0,0-6.5,11-6.5,24.8s7.1,22.8,7.1,22.8s8.9-5.4,16.4-5.5C59.9,33.8,50.4,21.7,50.3-0.1z"/>
		
			<linearGradient id="SVGID_3_" gradientUnits="userSpaceOnUse" x1="707.8712" y1="-661.5774" x2="672.7225" y2="-688.0826" gradientTransform="matrix(-1 0 0 1 715.667 723)">
			<stop  offset="0" style="stop-color:#0B95B8"/>
			<stop  offset="1" style="stop-color:#20265B"/>
		</linearGradient>
		<path class="st2" d="M0,49.6c0,0,11,6.5,24.8,6.5S47.6,49,47.6,49s-5.4-8.9-5.5-16.4C33.9,40.1,21.8,49.5,0,49.6z"/>
		
			<linearGradient id="SVGID_4_" gradientUnits="userSpaceOnUse" x1="37.4852" y1="-606.8636" x2="2.3361" y2="-633.3693" gradientTransform="matrix(0 1 1 0 668.334 54.666)">
			<stop  offset="0" style="stop-color:#0B95B8"/>
			<stop  offset="1" style="stop-color:#20265B"/>
		</linearGradient>
		<path class="st3" d="M49.7,99.9c0,0,6.5-11,6.5-24.8s-7.1-22.8-7.1-22.8s-8.9,5.4-16.4,5.5C40.1,66.1,49.5,78.2,49.7,99.9z"/>
	</g>
	<path class="st4" d="M88.2,91.4v-2.6c-1,1.9-2.5,2.9-4.6,2.9c-1.6,0-2.9-0.6-3.9-1.8c-1-1.2-1.4-2.9-1.4-4.9c0-2.2,0.5-4.1,1.6-5.5
		c1-1.4,2.5-2.1,4.2-2.1c1.6,0,3,0.6,4.1,1.9v-7.8h2.5v20L88.2,91.4L88.2,91.4z M88.2,80.9c-1.3-1.1-2.5-1.7-3.7-1.7
		c-1.1,0-2,0.5-2.7,1.5c-0.6,1-1,2.3-1,4.1c0,3.2,1,4.8,3.2,4.8c1.4,0,2.8-0.8,4.1-2.2L88.2,80.9L88.2,80.9z"/>
	<path class="st4" d="M99,75.1v-2.5h2.5v2.5H99z M99,91.4V77.7h2.5v13.7H99z"/>
	<path class="st4" d="M112.6,91.4l-5.1-13.7h2.5l4,10.7l4.2-10.7h2.3l-5.4,13.7H112.6z"/>
	<path class="st4" d="M136.5,91c-1.6,0.5-3.1,0.8-4.3,0.8c-2.1,0-3.7-0.7-4.9-2c-1.3-1.4-1.9-3.1-1.9-5.3c0-2.1,0.6-3.8,1.7-5.1
		c1.1-1.3,2.6-2,4.3-2c1.6,0,2.9,0.6,3.9,1.8c0.9,1.2,1.4,2.9,1.4,5V85H128c0.3,3.3,2,4.9,4.8,4.9c1,0,2.3-0.3,3.8-0.9V91H136.5z
		 M128,83h6.1c0-2.6-1-3.8-2.9-3.8C129.2,79.2,128.2,80.5,128,83z"/>
	<path class="st4" d="M144.1,91.4V77.7h2.5v2.6c1-1.9,2.4-2.9,4.3-2.9c0.3,0,0.5,0,0.8,0.1v2.3c-0.4-0.2-0.8-0.2-1.1-0.2
		c-1.6,0-2.9,1-4,2.8v9.1L144.1,91.4L144.1,91.4z"/>
	<path class="st4" d="M157.4,90.9v-2.3c1.6,0.8,3,1.2,4.2,1.2c0.7,0,1.3-0.2,1.8-0.6c0.4-0.3,0.7-0.9,0.7-1.5c0-0.9-0.7-1.6-2-2.1
		l-1.5-0.6c-2.2-0.9-3.2-2.2-3.2-3.9c0-1.2,0.4-2.2,1.3-2.9c0.9-0.7,2-1,3.5-1c0.8,0,1.7,0.1,2.9,0.3l0.5,0.1v2.1
		c-1.4-0.4-2.5-0.6-3.4-0.6c-0.7,0-1.3,0.2-1.7,0.4c-0.4,0.3-0.7,0.8-0.7,1.3c0,0.8,0.6,1.4,1.8,1.9l1.2,0.5
		c1.4,0.6,2.3,1.2,2.9,1.8c0.5,0.6,0.9,1.5,0.9,2.4c0,1.2-0.5,2.2-1.5,2.9s-2.2,1.1-3.6,1.1C160.4,91.7,159,91.4,157.4,90.9z"/>
	<path class="st4" d="M184.4,91c-1.6,0.5-3.1,0.8-4.3,0.8c-2.1,0-3.7-0.7-4.9-2c-1.3-1.4-1.9-3.1-1.9-5.3c0-2.1,0.6-3.8,1.7-5.1
		c1.1-1.3,2.6-2,4.3-2c1.6,0,2.9,0.6,3.9,1.8c0.9,1.2,1.4,2.9,1.4,5V85H176c0.3,3.3,2,4.9,4.8,4.9c1,0,2.3-0.3,3.8-0.9V91H184.4z
		 M176,83h6.1c0-2.6-1-3.8-2.9-3.8C177.3,79.2,176.1,80.5,176,83z"/>
	<path class="st5" d="M201.6,91c-1.6,0.5-3,0.7-4.1,0.7c-1.8,0-3.4-0.7-4.6-2.1c-1.2-1.4-1.8-3.1-1.8-5.2c0-2.2,0.6-4,1.8-5.2
		c1.2-1.2,2.9-1.9,5.1-1.9c1,0,2.2,0.2,3.6,0.4v2.1c-1.4-0.4-2.6-0.6-3.5-0.6c-1.3,0-2.3,0.5-3.1,1.5c-0.8,1-1.1,2.2-1.1,3.8
		s0.4,2.8,1.2,3.7c0.8,1,1.8,1.5,3.1,1.5c1.1,0,2.3-0.3,3.5-0.9V91H201.6z"/>
	<path class="st5" d="M214.1,91.7c-2,0-3.6-0.6-4.8-1.9c-1.2-1.3-1.7-3-1.7-5.3c0-2.2,0.6-4,1.7-5.3c1.2-1.3,2.8-1.9,4.8-1.9
		c2,0,3.6,0.6,4.8,1.9c1.2,1.3,1.7,3,1.7,5.3c0,2.2-0.6,4-1.7,5.3C217.7,91,216.1,91.7,214.1,91.7z M214.1,89.8
		c1.2,0,2.2-0.4,2.9-1.4c0.7-1,1-2.2,1-3.9c0-1.7-0.3-3-1-3.9c-0.7-1-1.6-1.4-2.9-1.4c-1.2,0-2.2,0.4-2.9,1.4c-0.7,1-1,2.2-1,3.9
		c0,1.7,0.3,3,1,3.9C211.8,89.3,212.8,89.8,214.1,89.8z"/>
</g>
</svg>
