<?xml version="1.0" encoding="utf-8"?>
<!-- Generator: Adobe Illustrator 21.1.0, SVG Export Plug-In . SVG Version: 6.00 Build 0)  -->
<svg version="1.1" id="Layer_1" xmlns="http://www.w3.org/2000/svg" xmlns:xlink="http://www.w3.org/1999/xlink" x="0px" y="0px"
	 viewBox="0 0 208 40" style="enable-background:new 0 0 208 40;" xml:space="preserve">
<style type="text/css">
	.st0{fill:#4CAECF;}
	.st1{fill:#2F4153;}
</style>
<g>
	<path class="st0" d="M44.3,20c0-0.2-0.1-0.4-0.2-0.6l0,0l-2.8-2.8c0,0,0,0-0.1-0.1s0,0-0.1-0.1l0,0c0,0,0,0-0.1,0c0,0,0,0,0,0
		c0,0-0.1,0-0.1,0h0c0,0,0,0-0.1,0s-0.1,0-0.1,0c0,0-0.1,0-0.1,0c0,0,0,0-0.1,0h0c-0.1,0-0.2,0.1-0.3,0.1c0,0,0,0-0.1,0
		c0,0,0,0-0.1,0.1L27.6,29.1c-5,5-13.2,5-18.2,0c-5-5-5-13.2,0-18.2C13.5,6.8,19.7,6,24.6,8.6c0.2,0.1,0.4,0.4,0.4,0.7
		c0,0.2-0.1,0.4-0.2,0.5l-0.6,0.6c-0.1,0.1-0.3,0.2-0.5,0.2c-0.1,0-0.2,0-0.3-0.1l0,0c-4-2-9-1.4-12.3,2c-4.2,4.2-4.2,10.9,0,15.1
		s10.9,4.2,15.1,0l12.5-12.5l0,0c0.1-0.1,0.2-0.3,0.2-0.6s-0.1-0.4-0.2-0.5l0,0c0,0-0.1-0.1-0.1-0.1l0,0l-1.4-1.4l-1.3-1.3l0,0
		c0,0-0.1-0.1-0.1-0.1l0,0c-0.1-0.1-0.3-0.2-0.5-0.2s-0.4,0.1-0.5,0.2l-0.1,0.1L22.1,23.6c-2,2-5.1,2-7.1,0s-2-5.2,0-7.1
		c2-2,5.2-2,7.1,0c0.4,0.4,0.8,0.9,1,1.4l0,0l0,0v0l0,0c0,0,0,0.1,0,0.1l0,0c0,0,0,0,0,0.1c0,0,0,0,0,0s0,0,0.1,0.1l0,0
		c0,0,0,0,0.1,0.1h0c0,0,0,0,0.1,0c0,0,0,0,0,0c0,0,0.1,0,0.1,0c0,0,0,0,0,0s0,0,0.1,0h0c0,0,0.1,0,0.1,0l0,0c0,0,0,0,0.1,0h0h0h0h0
		h0h0c0,0,0,0,0,0c0,0,0,0,0,0s0,0,0,0l0,0c0,0,0.1-0.1,0.1-0.1l0,0l8.6-8.6l0,0c0,0,0,0,0.1-0.1l0,0c0.1-0.1,0.2-0.3,0.2-0.5
		c0-0.2-0.1-0.4-0.2-0.5l-0.1-0.1l-1.4-1.4c-7.2-7.2-18.9-7.2-26.1,0s-7.2,19,0,26.2c7.2,7.2,19,7.2,26.2,0l12.5-12.5l0,0
		C44.2,20.4,44.3,20.2,44.3,20 M20.5,22c1.1-1.1,1.1-2.9,0-4c-1.1-1.1-2.9-1.1-4,0c-1.1,1.1-1.1,2.9,0,4
		C17.6,23.1,19.4,23.1,20.5,22"/>
	<polygon class="st1" points="66.4,11 66.4,12.6 60.7,12.6 60.7,17.1 66.4,17.1 66.4,18.7 60.7,18.7 60.7,23.7 66.5,23.7 66.5,25.3 
		58.9,25.3 58.9,11 	"/>
	<path class="st1" d="M80,25.3V19c0-1.1-0.1-1.7-0.2-2.1c-0.2-0.4-0.4-0.7-0.8-0.9c-0.3-0.2-0.7-0.3-1.1-0.3c-0.3,0-0.7,0.1-1,0.3
		c-0.3,0.2-0.6,0.5-0.8,0.7c-0.1,0.2-0.2,0.5-0.2,0.7s-0.1,0.7-0.1,1.3v6.6h-1.7V19c0-1.1-0.1-1.7-0.2-2.1c-0.2-0.4-0.4-0.7-0.8-0.9
		c-0.3-0.2-0.7-0.3-1.1-0.3c-0.4,0-0.8,0.1-1.1,0.4c-0.3,0.2-0.6,0.6-0.8,1c-0.1,0.2-0.2,0.9-0.2,1.9v6.3h-1.7V15H70
		c0.7-0.5,1.4-0.7,2.2-0.7c1.1,0,2.1,0.4,2.9,1.3c0.8-0.9,1.8-1.3,2.9-1.3c1,0,1.9,0.3,2.6,1c0.4,0.4,0.7,0.8,0.8,1.2
		c0.1,0.4,0.2,1,0.2,1.8v7L80,25.3L80,25.3z"/>
	<path class="st1" d="M85.5,17.8v4.3c0.2,0.7,0.6,1.2,1,1.5c0.5,0.3,1,0.5,1.7,0.5c0.8,0,1.5-0.3,2-0.9c0.7-0.8,1-1.9,1-3.4
		c0-1.4-0.3-2.4-0.9-3.2c-0.5-0.7-1.3-1-2.1-1c-0.6,0-1.2,0.2-1.7,0.6C86.1,16.6,85.7,17.1,85.5,17.8 M85.6,15
		c0.7-0.5,1.5-0.7,2.6-0.7c1.5,0,2.6,0.5,3.5,1.6c0.8,1,1.3,2.3,1.3,4.1c0,1.9-0.5,3.4-1.5,4.4c-0.8,0.8-1.9,1.3-3.2,1.3
		c-1.1,0-2-0.3-2.8-0.8v4.7h-1.7V15H85.6z"/>
	<path class="st1" d="M97.3,24v1.4c-0.1,0-0.2,0-0.4,0c-1.1,0-1.9-0.3-2.2-0.9c-0.1-0.2-0.2-0.4-0.2-0.7s0-0.8,0-1.4V10.5h1.7v11.9
		c0,0.5,0,0.8,0,1s0.1,0.3,0.2,0.4C96.5,24,96.8,24,97.3,24"/>
	<path class="st1" d="M102.8,15.7c-0.4,0-0.8,0.1-1.1,0.3c-0.4,0.2-0.7,0.4-0.9,0.7c-0.6,0.8-0.9,1.8-0.9,3.2s0.3,2.4,0.9,3.2
		c0.5,0.7,1.3,1,2.2,1c0.8,0,1.5-0.3,1.9-0.9c0.7-0.8,1-1.9,1-3.4c0-1.4-0.3-2.4-0.9-3.2C104.5,16.1,103.7,15.7,102.8,15.7
		 M102.9,14.3c1.4,0,2.5,0.5,3.4,1.6c0.8,1,1.3,2.3,1.3,4.1c0,1.9-0.5,3.4-1.5,4.4c-0.8,0.8-1.9,1.3-3.2,1.3c-1.6,0-2.7-0.6-3.6-1.6
		c-0.8-1-1.2-2.4-1.2-4c0-1.6,0.3-2.9,1.1-3.9C100,14.9,101.3,14.3,102.9,14.3"/>
	<path class="st1" d="M117.3,14.6l-5.5,14.8h-1.5l1.5-4.2l-4.1-10.6h1.8l2.3,6.3c0.2,0.5,0.4,1.3,0.8,2.5c0.3-1.1,0.6-2,0.8-2.6
		l2.1-6.1H117.3z"/>
	<path class="st1" d="M125,18.9c-0.1-0.7-0.2-1.2-0.5-1.7c-0.5-1-1.4-1.5-2.4-1.5c-0.7,0-1.3,0.2-1.7,0.6c-0.7,0.5-1,1.4-1.2,2.5
		L125,18.9L125,18.9z M126.8,20.2h-7.8c0,1,0.2,1.8,0.6,2.4c0.5,1,1.4,1.5,2.5,1.5c1.1,0,1.9-0.5,2.4-1.6l1.5,0.7
		c-0.8,1.5-2.2,2.3-4,2.3c-1.6,0-2.7-0.6-3.6-1.6c-0.8-1-1.2-2.4-1.2-4c0-1.5,0.3-2.8,1.1-3.8c0.9-1.2,2.1-1.8,3.7-1.8
		c1.5,0,2.6,0.5,3.5,1.6c0.5,0.5,0.8,1.1,0.9,1.8C126.7,18.3,126.8,19.2,126.8,20.2"/>
	<path class="st1" d="M135.7,18.9c-0.1-0.7-0.2-1.2-0.5-1.7c-0.5-1-1.4-1.5-2.4-1.5c-0.7,0-1.3,0.2-1.7,0.6c-0.7,0.5-1,1.4-1.2,2.5
		L135.7,18.9L135.7,18.9z M137.5,20.2h-7.8c0,1,0.2,1.8,0.6,2.4c0.5,1,1.4,1.5,2.5,1.5c1.1,0,1.9-0.5,2.4-1.6l1.5,0.7
		c-0.8,1.5-2.2,2.3-4,2.3c-1.6,0-2.7-0.6-3.6-1.6c-0.8-1-1.2-2.4-1.2-4c0-1.5,0.3-2.8,1.1-3.8c0.9-1.2,2.1-1.8,3.7-1.8
		c1.5,0,2.6,0.5,3.5,1.6c0.5,0.5,0.8,1.1,0.9,1.8C137.4,18.3,137.5,19.2,137.5,20.2"/>
	<path class="st1" d="M148.1,14.6c-0.7-1.5-1.8-2.3-3.1-2.3c-1.1,0-2.1,0.5-2.7,1.5c-0.7,1.1-1.1,2.5-1.1,4.2c0,1.7,0.3,3.1,0.9,4.1
		c0.3,0.6,0.8,1.1,1.5,1.4c0.5,0.2,1,0.4,1.5,0.4c0.7,0,1.3-0.2,1.8-0.6c0.6-0.4,1-1,1.3-1.7l1.7,0.8c-0.1,0.2-0.2,0.5-0.3,0.6
		c-1.1,1.7-2.6,2.5-4.5,2.5c-1.4,0-2.5-0.4-3.5-1.3c-1.5-1.4-2.3-3.4-2.3-6.2c0-2.2,0.5-4,1.6-5.4c1-1.4,2.4-2.1,4.2-2.1
		c1.7,0,3.1,0.7,4.1,2.1c0.2,0.3,0.5,0.6,0.6,1L148.1,14.6z"/>
	<path class="st1" d="M155.7,15.7c-0.4,0-0.8,0.1-1.1,0.3c-0.4,0.2-0.7,0.4-0.9,0.7c-0.6,0.8-0.9,1.8-0.9,3.2s0.3,2.4,0.9,3.2
		c0.5,0.7,1.3,1,2.2,1c0.8,0,1.5-0.3,1.9-0.9c0.7-0.8,1-1.9,1-3.4c0-1.4-0.3-2.4-0.9-3.2C157.3,16.1,156.6,15.7,155.7,15.7
		 M155.8,14.3c1.4,0,2.5,0.5,3.4,1.6c0.8,1,1.3,2.3,1.3,4.1c0,1.9-0.5,3.4-1.5,4.4c-0.8,0.8-1.9,1.3-3.2,1.3c-1.6,0-2.7-0.6-3.6-1.6
		c-0.8-1-1.2-2.4-1.2-4c0-1.6,0.3-2.9,1.1-3.9C152.9,14.9,154.2,14.3,155.8,14.3"/>
	<path class="st1" d="M162,25.3V15h1.6c0.8-0.5,1.6-0.7,2.5-0.7c1.1,0,2.1,0.3,2.9,1c0.5,0.4,0.8,0.8,0.9,1.2c0.1,0.4,0.2,1,0.2,1.8
		v7h-1.7V19c0-1.1-0.1-1.8-0.2-2.1c-0.2-0.3-0.5-0.7-0.9-0.9c-0.4-0.2-0.8-0.3-1.3-0.3c-0.5,0-0.9,0.1-1.3,0.4
		c-0.4,0.2-0.7,0.6-0.9,0.9c-0.1,0.3-0.2,0.9-0.2,1.9v6.3H162z"/>
	<path class="st1" d="M172.4,25.3V15h1.6c0.8-0.5,1.6-0.7,2.5-0.7c1.1,0,2.1,0.3,2.9,1c0.5,0.4,0.8,0.8,0.9,1.2
		c0.1,0.4,0.2,1,0.2,1.8v7h-1.7V19c0-1.1-0.1-1.8-0.2-2.1c-0.2-0.3-0.5-0.7-0.9-0.9c-0.4-0.2-0.8-0.3-1.3-0.3
		c-0.5,0-0.9,0.1-1.3,0.4c-0.4,0.2-0.7,0.6-0.9,0.9c-0.1,0.3-0.2,0.9-0.2,1.9v6.3H172.4z"/>
	<path class="st1" d="M189.8,18.9c-0.1-0.7-0.2-1.2-0.5-1.7c-0.5-1-1.4-1.5-2.4-1.5c-0.7,0-1.3,0.2-1.7,0.6c-0.7,0.5-1,1.4-1.2,2.5
		L189.8,18.9L189.8,18.9z M191.5,20.2h-7.8c0,1,0.2,1.8,0.6,2.4c0.5,1,1.4,1.5,2.5,1.5c1.1,0,1.9-0.5,2.4-1.6l1.5,0.7
		c-0.8,1.5-2.2,2.3-4,2.3c-1.6,0-2.7-0.6-3.6-1.6c-0.8-1-1.2-2.4-1.2-4c0-1.5,0.3-2.8,1.1-3.8c0.9-1.2,2.1-1.8,3.7-1.8
		c1.5,0,2.6,0.5,3.5,1.6c0.5,0.5,0.8,1.1,0.9,1.8C191.5,18.3,191.5,19.2,191.5,20.2"/>
	<path class="st1" d="M199.9,17.3c-0.5-1-1.4-1.5-2.4-1.5c-0.9,0-1.6,0.3-2.1,1c-0.6,0.8-0.9,1.9-0.9,3.2c0,1.4,0.3,2.4,0.9,3.2
		c0.5,0.7,1.3,1,2.2,1c1.1,0,1.9-0.5,2.4-1.6l1.5,0.7c-0.8,1.5-2.2,2.3-4,2.3c-1.6,0-2.7-0.6-3.6-1.6c-0.8-1-1.2-2.4-1.2-4
		c0-1.5,0.3-2.8,1.1-3.8c0.9-1.2,2.1-1.8,3.7-1.8c1.4,0,2.6,0.5,3.5,1.6c0.2,0.2,0.3,0.4,0.5,0.7L199.9,17.3z"/>
	<polygon class="st1" points="204.4,11.6 204.4,14.6 202.5,14.6 202.5,16 204.4,16 204.4,25.3 206.1,25.3 206.1,16 208,16 208,14.6 
		206.1,14.6 206.1,11.6 	"/>
</g>
</svg>
